<svg id="PKA_DK_Pos_100_mm" data-name="PKA DK Pos 100 mm" xmlns="http://www.w3.org/2000/svg" viewBox="0 0 400 300"><defs><style>.cls-1{fill:#900}.cls-2{fill:#231f20}</style></defs><path class="cls-1" d="M61.22 92.27H32.9c-21.72 0-31.55 7.37-31.55 26.34V163a2.44 2.44 0 0 0 2.53 2.34h40.47a2.38 2.38 0 0 0 2.5-2.34v-16.1h14.32c42.26 0 66.71-5.54 66.71-27.22 0-21.83-24.48-27.37-66.66-27.37m-5 43.22h-9.36v-31.89h9.43c11.6 0 24 3.33 24 16.23s-12.35 15.61-24 15.61M181.57 92.28c-21.31 0-31.35 7.5-31.35 26.2V163a2.41 2.41 0 0 0 2.48 2.34h41.24a2.34 2.34 0 0 0 2.47-2.34v-22.23H245a2.4 2.4 0 0 0 2.48-2.35v-7.91a2.45 2.45 0 0 0-2.48-2.35h-48.6v-22.6h56.73a2.42 2.42 0 0 0 2.51-2.34v-8.59a2.32 2.32 0 0 0-2.52-2.35zM397.82 162.37l-37.32-55.72c-8-11.75-11.62-14.75-31.39-14.75h-7.95c-20.33 0-24.51 7.31-28.61 13.36l-38.2 57.25c-.83 1.24-.52 2.79 1.42 2.79h14.71c2 0 2.55-.54 3.58-2.2l8.61-14h52.13l8.29 13.48c1.33 2.17 2.37 2.71 5.47 2.71h47.78a1.79 1.79 0 0 0 1.48-2.93m-108.35-24.3l19.28-31.32L328 138.07z"/><path class="cls-2" d="M14.55 198.13h-8.9v5.54h10v2.82H1.35v-18.86h13.73v2.83H5.65v4.87h8.9zM51.65 187.63H56v12.23c0 5.21-3.15 6.94-7.85 6.94a14.14 14.14 0 0 1-3.61-.45l.53-2.77a11.42 11.42 0 0 0 2.66.34c2.45 0 4-.9 4-4.17zM98.06 198.13h-8.9v5.54h10v2.82h-14.3v-18.86h13.73v2.83h-9.43v4.87h8.9zM128 206.49v-18.86h4.91l6.1 8.09a49.56 49.56 0 0 1 4 6.33h.07a69.22 69.22 0 0 1-.38-7.84v-6.58h4v18.86h-4.45l-6.16-8.28a63 63 0 0 1-4.25-6.52h-.1c.18 2.43.21 4.92.21 8v6.74zM175.62 187.88a54.66 54.66 0 0 1 6.87-.39c4.41 0 7.46.73 9.63 2.18a7.83 7.83 0 0 1 3.68 6.94 8.88 8.88 0 0 1-3.68 7.5c-2.35 1.71-6.1 2.58-10.69 2.58-2.52 0-4.41-.11-5.81-.25zm4.31 16a18.61 18.61 0 0 0 2.38.09c5.6 0 8.93-2.44 8.93-7.22 0-4.17-3-6.55-8.37-6.55a17.41 17.41 0 0 0-2.94.19zM246.87 196.87c0 6.32-4.8 9.93-11.32 9.93s-10.86-4.06-10.86-9.6c0-5.79 4.56-9.87 11.22-9.87 6.9 0 10.96 4.16 10.96 9.54zm-17.62.28c0 3.83 2.42 6.88 6.55 6.88s6.52-3.08 6.52-7c0-3.55-2.21-6.9-6.52-6.9s-6.55 3.12-6.55 7.02zM296.3 198.8c-.14-2.44-.32-5.38-.28-7.92h-.11a87.49 87.49 0 0 1-2.8 7.22l-3.43 8.17h-3.33l-3.15-8.06a82.1 82.1 0 0 1-2.39-7.33h-.07c-.1 2.46-.24 5.45-.42 8l-.52 7.58h-4l1.57-18.86H283l3.08 7.58c.84 2.21 1.58 4.46 2.18 6.55h.1c.63-2 1.44-4.36 2.35-6.57l3.26-7.56h5.6l1.43 18.89h-4.21zM350.38 198.8c-.14-2.44-.31-5.38-.28-7.92h-.1c-.77 2.29-1.75 4.84-2.81 7.22l-3.43 8.17h-3.33l-3.15-8.06c-.91-2.41-1.75-5-2.38-7.33h-.07c-.11 2.46-.25 5.45-.42 8l-.53 7.58h-4l1.58-18.86h5.67l3.09 7.58c.84 2.21 1.58 4.46 2.17 6.55h.11c.63-2 1.43-4.36 2.34-6.57l3.26-7.56h5.61l1.29 18.89h-4.2zM397.14 198.13h-8.9v5.54h10v2.82h-14.3v-18.86h13.73v2.83h-9.43v4.87h8.9z"/></svg>