<svg width="289" height="42" viewBox="0 0 289 42" fill="none" xmlns="http://www.w3.org/2000/svg">
<path d="M140.608 0.916C122.623 -1.162 87.5883 2.879 54.3713 10.862L46.5303 12.749C24.4895 18.062 12.5832 21.766 4.15099 25.934C0.859982 27.561 0.572365 27.778 0.604169 28.61C0.652566 29.824 1.17664 29.731 7.23803 27.434C13.5103 25.057 19.0953 23.514 34.3722 19.938C85.4312 7.986 109.149 4.492 135.472 5.046C140.63 5.154 148.781 6.742 148.726 7.628C148.652 8.811 143.282 11.938 130.922 17.994C115.717 25.444 106.427 30.528 105.548 31.878C104.045 34.186 105.408 36.285 108.619 36.612C110.454 36.799 110.875 36.769 119.4 35.832C143.876 33.146 159.462 32.344 180.494 32.689C212.524 33.215 232.847 34.919 270.919 40.273C284.6 42.197 285.31 42.253 287.898 41.605L287.943 41.594C288.774 41.391 289.001 39.769 288.219 39.259C286.207 37.949 284.836 37.655 272.976 35.998C233.215 30.442 212.223 28.638 181.672 28.156C165.605 27.902 158.429 28.04 146.669 28.83C138.629 29.37 117.374 31.324 114.384 31.797C112.753 32.056 120.007 28.172 132.708 21.987C148.775 14.162 152.021 11.838 152.277 7.982C152.566 3.634 149.837 1.982 140.608 0.916Z" fill="#7A9C6C"/>
</svg>
